<svg xmlns="http://www.w3.org/2000/svg" width="18" height="16" viewBox="0 0 18 16"><g><g><path fill="#fff" d="M.53 7.107L17.382.027a.433.433 0 0 1 .455.072c.125.106.188.28.155.447l-2.743 14.429a.894.894 0 0 1-.863.727.849.849 0 0 1-.5-.163l-3.303-2.361-2.332 2.665a.44.44 0 0 1-.484.129.463.463 0 0 1-.305-.41L7.22 10.87.626 8.812a.895.895 0 0 1-.624-.815.918.918 0 0 1 .528-.89zm9.307 5.537l-1.689-1.205.151 2.96zm6.954-10.605L8.358 10.46l6.014 4.298zM.94 7.939l6.587 2.056 8.338-8.328z"/></g></g></svg>